<?xml version="1.0" standalone="no"?>
<!DOCTYPE svg PUBLIC "-//W3C//DTD SVG 20010904//EN"
 "http://www.w3.org/TR/2001/REC-SVG-20010904/DTD/svg10.dtd">
<svg version="1.0" xmlns="http://www.w3.org/2000/svg"
 width="2280.000000pt" height="1366.000000pt" viewBox="0 0 2280.000000 1366.000000"
 preserveAspectRatio="xMidYMid meet">

<g transform="translate(0.000000,1366.000000) scale(0.100000,-0.100000)"
fill="#f8f5f5" stroke="none">
<path d="M5450 13636 c-131 -35 -226 -152 -237 -290 -6 -76 8 -130 50 -192
124 -185 427 -108 427 108 0 61 -16 90 -60 108 -54 22 -110 -19 -110 -81 0
-12 14 -34 31 -50 25 -24 28 -31 19 -48 -14 -28 -61 -51 -101 -51 -109 0 -198
122 -169 233 31 114 137 190 266 189 175 -1 334 -199 334 -412 -1 -274 -205
-537 -471 -607 -89 -23 -283 -23 -369 1 -72 19 -198 77 -274 126 l-49 32 54
29 c68 37 101 69 125 120 l19 39 416 0 416 0 11 25 c7 14 12 30 12 35 0 6
-178 10 -469 10 l-469 0 -6 -36 c-10 -53 -72 -109 -142 -130 -75 -22 -124 -14
-237 37 -129 58 -188 68 -491 80 -273 11 -2659 10 -2670 -2 -3 -3 -9 -20 -12
-37 l-6 -32 76 0 77 0 -27 -35 c-31 -41 -53 -98 -54 -141 -1 -97 70 -204 160
-243 51 -22 155 -30 200 -16 24 8 24 8 6 -64 -35 -137 -28 -268 19 -385 13
-33 23 -61 22 -63 -2 -1 -34 10 -72 24 -96 36 -267 43 -371 16 l-72 -19 6 78
c6 96 -12 151 -72 216 -53 59 -105 82 -182 82 -65 0 -112 -15 -156 -50 l-28
-21 0 73 0 74 -41 -4 -40 -4 4 -1457 c4 -1637 -2 -1508 83 -1712 55 -133 60
-185 25 -266 -27 -61 -56 -90 -108 -108 l-38 -13 -3 -466 c-1 -294 1 -466 7
-466 6 0 22 5 36 12 l25 11 0 413 0 412 44 26 c51 30 90 73 119 133 l21 42 34
-50 c208 -309 186 -695 -53 -934 -76 -76 -169 -131 -269 -160 -90 -26 -249
-17 -339 20 -164 67 -258 219 -227 368 27 134 157 218 287 186 108 -28 162
-149 106 -236 -24 -36 -47 -37 -81 -3 -34 34 -50 37 -91 15 -83 -42 -30 -165
71 -165 144 0 248 153 204 301 -20 69 -64 123 -130 156 -68 36 -186 38 -258 6
-62 -28 -134 -96 -166 -158 -25 -46 -27 -60 -27 -165 0 -112 1 -117 34 -178
43 -79 113 -143 205 -186 100 -47 165 -61 286 -60 174 2 320 62 443 182 219
213 286 506 186 807 -17 50 -46 118 -65 153 -19 34 -34 65 -34 67 0 3 24 -8
53 -24 87 -49 180 -73 287 -73 201 -2 369 89 447 242 25 49 28 65 28 150 0 88
-3 101 -33 162 -18 36 -48 80 -67 97 l-35 30 43 11 c85 22 113 33 177 67 277
149 436 457 400 775 -18 158 -91 338 -189 464 -80 103 -225 231 -353 309 -56
35 -67 46 -52 50 10 3 43 18 72 32 153 75 224 289 156 467 -5 14 -3 14 27 2
173 -72 411 32 469 205 l18 51 32 -57 c93 -162 265 -343 408 -429 156 -93 364
-145 527 -131 337 30 613 252 686 555 7 30 14 57 16 59 1 2 21 -14 43 -37 68
-68 119 -87 235 -87 89 0 107 3 162 29 115 53 208 181 234 321 24 130 -2 286
-70 411 -16 30 -27 54 -25 54 2 0 28 -13 57 -29 263 -148 541 -158 792 -28
107 55 234 181 288 284 127 244 97 546 -72 713 -104 104 -246 143 -381 106z
m-3397 -845 c-38 -27 -114 -96 -169 -154 -110 -118 -157 -146 -239 -147 -64 0
-132 33 -162 79 -34 50 -32 129 3 170 14 17 30 31 34 31 5 0 22 -13 38 -30 36
-35 69 -38 106 -9 21 17 26 29 26 65 l0 44 217 0 216 0 -70 -49z m2076 39
c211 -22 370 -89 487 -205 121 -120 170 -244 162 -416 -3 -79 -9 -105 -34
-159 -17 -36 -46 -82 -63 -103 -77 -87 -214 -115 -323 -64 -190 86 -172 377
23 377 32 0 55 -7 73 -21 l27 -21 -22 -24 c-71 -75 43 -183 116 -110 38 38 41
85 12 150 -30 64 -78 101 -152 115 -94 18 -181 -13 -245 -85 -17 -20 -32 -35
-34 -33 -1 2 -15 26 -30 52 -57 99 -126 158 -233 197 -84 30 -225 26 -293 -10
-102 -52 -164 -127 -195 -235 -39 -131 17 -274 129 -332 42 -22 154 -29 202
-13 101 33 169 111 169 193 0 41 -4 53 -28 73 -81 69 -190 -31 -132 -120 15
-23 14 -25 -11 -45 -53 -42 -158 -16 -205 51 -18 24 -25 50 -27 100 -4 58 0
76 23 123 48 100 154 155 270 141 117 -13 197 -71 250 -179 73 -149 67 -318
-16 -487 -56 -114 -169 -228 -280 -283 -152 -75 -340 -98 -508 -62 -92 19
-236 87 -317 148 -254 192 -454 557 -579 1052 -23 94 -46 187 -49 208 l-7 37
869 0 c531 0 909 -4 971 -10z m-1879 -216 c22 -87 55 -206 75 -263 19 -58 35
-108 35 -112 0 -4 -17 -3 -37 3 -80 22 -176 -4 -241 -66 -60 -56 -79 -146 -47
-222 26 -63 126 -79 155 -24 25 46 -3 120 -45 120 -8 0 -15 7 -15 16 0 52 77
99 149 91 37 -4 52 -13 87 -50 129 -136 51 -347 -143 -388 -148 -30 -298 59
-377 224 -81 168 -72 343 26 530 42 82 182 222 268 270 35 20 66 35 67 33 1
-1 20 -74 43 -162z m-1181 -429 c68 -34 107 -115 98 -197 -9 -72 -36 -110
-157 -226 -60 -56 -127 -131 -149 -165 l-41 -62 0 217 0 217 33 -6 c38 -6 82
24 89 61 7 33 -16 83 -41 91 -17 5 -19 10 -10 26 27 52 120 75 178 44z m581
-346 c88 -28 141 -61 199 -125 144 -157 117 -387 -54 -465 -80 -37 -198 -17
-252 42 -62 68 -54 180 16 222 37 22 36 22 51 -12 16 -40 60 -58 100 -41 75
31 65 132 -16 166 -133 56 -284 -65 -284 -228 0 -31 4 -68 9 -81 9 -24 9 -24
-123 18 -72 24 -190 57 -261 75 -72 17 -136 33 -143 36 -10 3 -5 20 18 63 87
163 274 308 440 340 30 6 64 13 75 15 39 8 161 -5 225 -25z m-555 -535 c615
-160 1022 -444 1139 -795 95 -284 38 -566 -154 -760 -126 -128 -294 -196 -460
-187 -202 11 -349 132 -367 300 -16 160 80 283 230 295 98 8 169 -36 197 -123
15 -44 6 -96 -20 -119 -17 -16 -21 -16 -42 -1 -28 20 -61 20 -97 1 -33 -16
-41 -33 -41 -79 0 -75 86 -109 168 -67 168 86 174 359 10 455 -243 140 -551
-98 -501 -388 21 -126 105 -243 221 -308 l53 -30 -41 -35 c-102 -88 -118 -243
-35 -341 90 -104 240 -94 240 16 0 75 -69 108 -127 62 l-25 -19 -24 25 c-18
20 -24 36 -23 69 3 123 152 198 270 137 92 -47 141 -142 131 -250 -17 -198
-235 -327 -470 -279 -236 48 -407 217 -479 474 -22 78 -23 83 -26 1045 l-3
966 88 -19 c48 -10 133 -31 188 -45z"/>
<path d="M17139 13636 c-195 -52 -345 -304 -324 -544 14 -168 81 -308 205
-432 133 -134 275 -197 467 -207 163 -9 319 25 475 103 37 19 70 34 73 34 2 0
-8 -21 -24 -47 -46 -76 -72 -167 -78 -273 -7 -116 7 -187 53 -279 67 -134 185
-213 329 -219 101 -5 173 20 243 84 28 24 52 44 55 44 2 0 7 -19 11 -42 4 -23
19 -71 33 -107 86 -218 271 -376 518 -442 111 -30 297 -30 410 0 94 25 219 83
306 142 126 85 278 254 364 403 l28 49 12 -41 c55 -183 285 -286 478 -213 32
12 32 14 11 -50 -37 -111 -2 -266 80 -357 32 -35 107 -81 160 -97 15 -4 4 -15
-54 -51 -252 -155 -423 -362 -506 -614 -26 -78 -28 -97 -28 -240 -1 -178 11
-236 75 -366 70 -143 187 -262 324 -331 50 -26 97 -42 193 -69 9 -3 0 -19 -26
-49 -67 -77 -86 -126 -86 -230 0 -110 23 -176 89 -251 95 -109 202 -154 367
-154 117 0 193 17 290 66 37 19 68 32 68 29 0 -2 -15 -33 -34 -67 -84 -152
-127 -358 -106 -508 25 -181 89 -311 215 -436 165 -164 386 -234 598 -189 155
33 287 126 349 248 27 53 32 75 36 152 5 113 -19 186 -86 257 -66 71 -138 102
-232 103 -117 0 -193 -41 -248 -135 -35 -59 -37 -164 -4 -226 38 -74 115 -124
190 -124 101 0 154 123 71 166 -36 18 -73 10 -99 -23 -58 -73 -125 72 -76 165
34 65 128 101 213 82 69 -15 122 -55 158 -121 38 -69 41 -167 8 -241 -70 -156
-276 -258 -463 -229 -151 24 -256 78 -367 188 -121 121 -183 274 -184 453 -1
137 24 235 93 374 21 43 49 94 62 112 l22 33 21 -42 c29 -60 68 -103 119 -133
l44 -26 0 -391 c0 -216 3 -402 6 -415 4 -12 19 -29 35 -38 l29 -15 0 471 c0
440 -1 471 -17 476 -111 32 -173 141 -151 263 4 24 26 83 47 130 22 47 44 111
50 141 25 126 31 415 31 1686 l0 1332 -40 4 -40 4 0 -73 0 -72 -57 35 c-47 28
-67 34 -112 34 -81 0 -122 -15 -175 -61 -74 -65 -91 -106 -91 -219 l0 -95 -70
18 c-104 27 -275 20 -369 -17 -37 -14 -70 -26 -72 -26 -2 0 8 29 21 65 39 103
51 223 32 325 -9 47 -19 94 -22 105 -6 19 -1 20 93 20 92 0 102 2 147 30 132
82 171 235 90 355 l-34 50 76 0 c73 0 75 1 69 23 -3 12 -6 28 -6 35 0 10 -286
12 -1472 10 l-1473 -3 -78 -22 c-43 -13 -114 -38 -157 -58 -100 -45 -151 -52
-224 -31 -70 21 -132 77 -142 130 l-6 36 -469 0 c-291 0 -469 -4 -469 -10 0
-5 5 -21 12 -35 l11 -25 416 0 416 0 19 -39 c24 -51 57 -83 125 -120 l54 -29
-39 -25 c-235 -148 -510 -189 -719 -108 -326 126 -499 516 -352 795 68 128
169 196 292 196 115 -1 188 -43 231 -135 63 -133 -11 -283 -139 -285 -45 0
-92 22 -107 51 -9 17 -6 24 19 48 17 16 31 38 31 50 0 63 -56 103 -111 81 -48
-20 -62 -50 -57 -125 5 -80 38 -127 118 -167 142 -73 308 5 351 165 17 62 6
158 -25 222 -71 143 -249 217 -417 171z m3371 -803 c0 -5 -13 -65 -29 -135
-152 -658 -415 -1084 -772 -1252 -236 -112 -489 -96 -701 43 -261 172 -374
477 -264 717 66 143 229 231 363 195 154 -42 242 -216 172 -342 -44 -80 -153
-115 -213 -68 -24 19 -25 22 -11 42 24 35 19 90 -11 121 -35 34 -83 35 -121 2
-24 -21 -28 -32 -28 -74 0 -107 120 -202 253 -202 85 0 135 23 189 84 54 62
77 130 70 210 -13 165 -163 314 -333 332 -156 16 -340 -91 -409 -238 l-22 -47
-36 43 c-51 61 -107 86 -192 86 -114 0 -187 -49 -215 -147 -15 -50 -7 -87 25
-119 31 -31 80 -32 112 -2 30 28 31 83 2 114 l-20 22 27 21 c54 43 156 18 199
-48 34 -51 40 -99 21 -163 -45 -155 -209 -216 -365 -136 -240 122 -248 500
-16 734 129 130 268 190 469 203 158 10 1856 13 1856 4z m597 -34 c-1 -34 4
-46 26 -65 38 -33 73 -31 107 6 15 17 33 30 38 30 6 0 22 -14 37 -32 24 -29
27 -38 23 -90 -3 -37 -12 -68 -24 -86 -29 -40 -99 -72 -157 -72 -84 0 -132 29
-244 148 -55 59 -127 126 -159 147 -33 22 -63 43 -68 47 -6 4 87 8 206 8 l217
0 -2 -41z m-302 -174 c131 -130 191 -254 202 -415 23 -357 -301 -619 -544
-440 -84 62 -118 192 -73 279 57 113 200 147 257 62 28 -42 29 -61 4 -61 -44
0 -67 -83 -36 -127 34 -48 125 -30 150 31 21 49 19 120 -4 165 -50 97 -181
152 -289 122 -17 -5 -32 -6 -32 -2 0 4 15 53 34 108 28 84 84 288 110 406 l7
28 62 -33 c38 -20 96 -67 152 -123z m1062 -445 c17 -10 37 -28 42 -39 9 -16 7
-21 -9 -26 -28 -9 -52 -59 -44 -90 10 -39 53 -68 91 -62 l33 6 0 -216 0 -215
-39 59 c-22 32 -93 110 -159 173 -125 121 -152 165 -152 247 0 130 137 224
237 163z m-408 -331 c25 -6 84 -29 131 -51 71 -34 100 -56 175 -132 94 -95
170 -212 143 -220 -7 -3 -71 -19 -143 -36 -71 -18 -189 -51 -261 -75 -132 -42
-132 -42 -123 -18 5 13 9 50 9 81 0 146 -117 257 -248 237 -84 -12 -129 -92
-87 -152 32 -46 113 -36 135 18 14 34 13 33 49 14 51 -26 75 -108 50 -172 -45
-119 -229 -152 -339 -61 -93 77 -119 225 -60 344 90 183 334 278 569 223z
m519 -1539 c-4 -866 -4 -876 -26 -955 -70 -254 -244 -426 -481 -472 -253 -50
-472 96 -471 315 0 72 25 126 78 174 111 100 294 67 322 -58 11 -48 3 -87 -22
-114 l-20 -21 -22 20 c-48 46 -136 8 -136 -57 0 -94 130 -121 220 -45 104 87
103 251 -1 354 l-47 48 55 31 c113 64 190 173 214 302 29 160 -49 321 -192
394 -62 32 -177 43 -245 25 -58 -16 -118 -63 -151 -118 -24 -42 -28 -58 -28
-128 0 -71 4 -86 31 -135 55 -98 150 -143 223 -105 32 16 41 33 41 78 -1 72
-75 109 -141 70 -28 -16 -29 -16 -44 2 -41 55 -22 149 40 204 77 67 210 51
301 -36 110 -108 99 -290 -25 -414 -72 -72 -141 -99 -266 -106 -272 -16 -531
168 -625 442 -47 136 -55 314 -20 449 98 383 545 696 1233 865 89 22 171 41
182 43 19 3 20 -3 23 -87 2 -49 1 -484 0 -965z"/>
<path d="M1033 13485 c-48 -21 -144 -83 -180 -117 l-32 -31 -95 27 c-133 38
-254 56 -378 56 l-106 0 -7 -41 c-14 -83 18 -320 65 -477 l18 -62 -40 -48
c-40 -48 -101 -150 -112 -188 -6 -18 3 -25 66 -54 360 -162 657 -158 841 10
189 173 203 500 37 858 -21 45 -40 82 -42 82 -2 -1 -17 -7 -35 -15z m38 -224
c34 -96 49 -188 49 -297 0 -58 -3 -104 -7 -102 -5 2 -46 23 -92 46 -47 23
-119 49 -162 58 l-77 17 5 36 c7 53 33 131 56 171 26 44 90 114 142 152 l39
29 14 -27 c8 -14 23 -52 33 -83z m-526 53 c110 -22 205 -48 205 -55 0 -4 -13
-35 -29 -69 -16 -34 -35 -93 -42 -131 -10 -57 -16 -70 -33 -73 -105 -20 -144
-31 -193 -56 -32 -16 -59 -28 -60 -26 -11 11 -55 218 -65 305 -11 98 -11 104
7 117 22 16 88 12 210 -12z m140 -489 c9 -63 38 -145 78 -220 l34 -64 -52 -6
c-75 -10 -226 11 -332 47 -135 44 -135 45 -88 107 78 103 211 178 316 180 36
1 37 0 44 -44z m184 19 c61 -18 165 -66 200 -93 23 -18 23 -18 6 -55 -32 -66
-140 -145 -165 -120 -28 29 -110 227 -110 266 0 22 3 22 69 2z"/>
<path d="M21695 13430 c-71 -141 -125 -349 -125 -479 1 -145 57 -290 147 -379
181 -178 467 -189 831 -30 82 36 92 43 86 62 -11 38 -72 140 -112 188 l-40 48
23 79 c43 146 75 391 61 465 l-7 36 -107 0 c-123 0 -237 -17 -376 -54 l-97
-27 -37 33 c-45 41 -125 92 -174 113 l-38 15 -35 -70z m168 -129 c84 -78 129
-164 151 -287 l5 -31 -78 -17 c-43 -9 -115 -35 -162 -58 -46 -23 -87 -44 -91
-46 -14 -7 -8 205 7 275 14 68 42 154 65 205 16 33 30 28 103 -41z m605 27
c16 -16 15 -79 -4 -179 -14 -76 -53 -241 -58 -246 -1 -1 -27 11 -59 27 -49 25
-88 36 -193 56 -17 3 -23 16 -33 73 -7 38 -26 97 -42 131 -16 34 -29 65 -29
69 0 15 242 66 350 74 25 2 47 4 51 5 3 1 10 -3 17 -10z m-181 -493 c75 -34
142 -87 189 -147 46 -61 46 -62 -89 -106 -106 -36 -257 -57 -332 -47 l-52 6
34 64 c40 76 69 157 79 221 l7 47 53 -6 c30 -3 80 -17 111 -32z m-287 7 c0
-39 -82 -237 -110 -266 -15 -15 -55 2 -102 44 -55 48 -85 104 -67 126 22 27
220 111 267 113 6 1 12 -7 12 -17z"/>
<path d="M6344 13163 l-282 -3 -6 -31 c-3 -18 -6 -47 -6 -65 l0 -34 5351 0
5352 0 -7 62 c-3 34 -9 64 -12 67 -6 6 -9898 10 -10390 4z"/>
<path d="M1285 13108 c4 -29 9 -55 12 -58 6 -7 1773 -17 3003 -18 542 0 979 2
971 5 -19 8 -56 50 -78 91 l-18 32 -1948 0 -1949 0 7 -52z"/>
<path d="M5735 13139 c-4 -12 -25 -42 -47 -65 l-41 -44 85 0 85 0 7 46 c11 84
11 84 -38 84 -37 0 -46 -4 -51 -21z"/>
<path d="M16970 13141 c0 -10 3 -39 6 -65 l7 -46 85 0 85 0 -41 44 c-22 23
-43 53 -47 65 -5 17 -14 21 -51 21 -36 0 -44 -3 -44 -19z"/>
<path d="M17620 13151 c0 -4 -16 -29 -35 -55 -20 -25 -32 -46 -28 -47 4 -1 -2
-4 -15 -7 -13 -4 874 -7 1971 -7 1322 0 1994 3 1994 10 0 6 3 34 7 63 l8 52
-1951 0 c-1076 0 -1951 -4 -1951 -9z"/>
<path d="M6026 12938 c-3 -13 -6 -29 -6 -35 0 -10 136 -13 645 -13 l645 0 0
35 0 35 -639 0 -639 0 -6 -22z"/>
<path d="M7422 12953 c-17 -3 -22 -10 -20 -26 3 -20 9 -22 63 -22 54 0 60 2
63 21 4 30 -37 40 -106 27z"/>
<path d="M7633 12953 c-7 -2 -13 -13 -13 -24 0 -16 7 -19 55 -19 47 0 55 3 55
19 0 10 -7 22 -16 25 -18 7 -63 7 -81 -1z"/>
<path d="M7838 12953 c-10 -2 -18 -13 -18 -23 0 -14 10 -19 48 -22 60 -6 74
-1 70 26 -2 17 -10 21 -43 23 -22 0 -48 -1 -57 -4z"/>
<path d="M8043 12953 c-7 -2 -13 -13 -13 -24 0 -17 8 -19 60 -19 52 0 60 2 60
19 0 10 -7 22 -16 25 -18 7 -73 7 -91 -1z"/>
<path d="M8247 12953 c-11 -3 -16 -10 -13 -20 3 -8 6 -19 6 -24 0 -6 25 -9 57
-7 47 2 58 6 61 22 2 10 -2 22 -10 27 -14 9 -70 10 -101 2z"/>
<path d="M8463 12953 c-24 -5 -29 -19 -14 -41 5 -9 25 -12 62 -10 46 3 54 6
57 24 4 30 -37 40 -105 27z"/>
<path d="M8672 12953 c-17 -3 -22 -10 -20 -26 3 -20 9 -22 63 -22 53 0 60 2
63 21 2 17 -4 23 -29 28 -33 6 -39 6 -77 -1z"/>
<path d="M8871 12951 c-8 -5 -11 -16 -8 -25 5 -12 20 -16 62 -16 47 0 55 3 55
19 0 10 -7 22 -16 25 -23 9 -77 7 -93 -3z"/>
<path d="M9087 12953 c-10 -3 -17 -12 -15 -21 2 -13 16 -18 61 -20 51 -3 57
-1 57 16 0 29 -46 40 -103 25z"/>
<path d="M9297 12953 c-12 -3 -17 -12 -15 -26 3 -20 9 -22 58 -22 48 0 55 3
58 21 4 29 -44 42 -101 27z"/>
<path d="M9503 12953 c-26 -5 -28 -12 -10 -37 18 -25 110 -19 115 8 6 32 -34
43 -105 29z"/>
<path d="M9713 12953 c-24 -5 -29 -19 -14 -41 5 -9 25 -12 62 -10 46 3 54 6
57 24 4 30 -37 40 -105 27z"/>
<path d="M9922 12953 c-17 -3 -22 -10 -20 -26 3 -20 9 -22 63 -22 53 0 60 2
63 21 2 17 -4 23 -29 28 -33 6 -39 6 -77 -1z"/>
<path d="M10132 12953 c-17 -3 -22 -10 -20 -26 3 -19 10 -22 60 -25 50 -3 57
-1 63 18 4 12 5 23 3 25 -7 7 -83 13 -106 8z"/>
<path d="M10342 12953 c-15 -3 -22 -10 -20 -21 2 -13 16 -18 61 -20 51 -3 57
-1 57 16 0 29 -32 37 -98 25z"/>
<path d="M10547 12953 c-12 -3 -17 -12 -15 -26 3 -19 9 -22 57 -22 40 0 57 4
65 17 5 9 8 19 5 22 -8 9 -91 15 -112 9z"/>
<path d="M10753 12953 c-7 -2 -13 -13 -13 -24 0 -17 8 -19 60 -19 52 0 60 2
60 19 0 26 -67 41 -107 24z"/>
<path d="M10962 12953 c-15 -3 -22 -10 -20 -21 3 -13 17 -18 66 -20 56 -3 62
-1 62 16 0 28 -42 37 -108 25z"/>
<path d="M11173 12953 c-7 -2 -13 -13 -13 -24 0 -16 7 -19 55 -19 47 0 55 3
55 19 0 25 -59 40 -97 24z"/>
<path d="M11383 12953 c-7 -2 -13 -13 -13 -24 0 -16 7 -19 55 -19 47 0 55 3
55 19 0 10 -7 22 -16 25 -18 7 -63 7 -81 -1z"/>
<path d="M11583 12954 c-7 -3 -13 -14 -13 -25 0 -22 31 -32 81 -27 29 2 34 7
34 28 0 23 -4 25 -45 27 -25 1 -51 0 -57 -3z"/>
<path d="M11797 12953 c-10 -3 -17 -12 -15 -21 2 -13 16 -18 61 -20 51 -3 57
-1 57 16 0 27 -49 39 -103 25z"/>
<path d="M12008 12953 c-10 -2 -18 -13 -18 -24 0 -17 7 -19 60 -19 52 0 60 3
60 19 0 24 -53 37 -102 24z"/>
<path d="M12207 12953 c-4 -3 -7 -15 -7 -25 0 -15 8 -18 55 -18 42 0 57 4 62
16 3 9 0 20 -8 25 -16 10 -93 12 -102 2z"/>
<path d="M12423 12953 c-24 -5 -29 -19 -14 -41 5 -9 25 -12 62 -10 46 3 54 6
57 24 4 30 -37 40 -105 27z"/>
<path d="M12620 12950 c-12 -7 -12 -13 -4 -27 8 -13 24 -18 60 -18 42 0 49 3
52 21 2 15 -4 23 -20 28 -34 9 -71 7 -88 -4z"/>
<path d="M12837 12953 c-12 -3 -17 -12 -15 -26 3 -19 10 -22 61 -25 55 -3 57
-2 57 21 0 32 -45 45 -103 30z"/>
<path d="M13034 12945 c-13 -34 4 -46 58 -43 45 3 53 6 56 24 2 15 -4 23 -20
28 -42 11 -88 7 -94 -9z"/>
<path d="M13253 12953 c-7 -2 -13 -13 -13 -22 0 -14 11 -20 46 -25 48 -6 74 4
74 29 0 20 -72 33 -107 18z"/>
<path d="M13467 12953 c-12 -3 -17 -12 -15 -26 3 -20 9 -22 58 -22 48 0 55 3
58 21 4 29 -44 42 -101 27z"/>
<path d="M13664 12945 c-13 -33 4 -46 53 -43 37 2 49 7 51 22 5 24 -14 36 -61
36 -24 0 -40 -5 -43 -15z"/>
<path d="M13882 12953 c-17 -3 -22 -10 -20 -26 3 -20 9 -22 63 -22 53 0 60 2
63 21 2 17 -4 23 -29 28 -33 6 -39 6 -77 -1z"/>
<path d="M14092 12953 c-15 -3 -22 -10 -20 -21 2 -13 16 -18 61 -20 51 -3 57
-1 57 16 0 29 -32 37 -98 25z"/>
<path d="M14302 12953 c-39 -8 -22 -36 26 -46 52 -10 72 -4 72 22 0 28 -32 36
-98 24z"/>
<path d="M14508 12953 c-10 -2 -18 -13 -18 -24 0 -17 7 -19 60 -19 52 0 60 2
60 19 0 26 -50 38 -102 24z"/>
<path d="M14712 12953 c-15 -3 -22 -10 -20 -21 2 -12 18 -19 53 -23 60 -7 75
-3 75 21 0 26 -44 35 -108 23z"/>
<path d="M14923 12953 c-7 -2 -13 -13 -13 -24 0 -15 8 -19 40 -20 22 -1 46 -2
53 -3 6 -1 13 11 15 27 3 26 2 27 -40 26 -24 0 -49 -3 -55 -6z"/>
<path d="M15124 12945 c-11 -28 4 -45 40 -45 47 0 66 9 66 30 0 21 -19 30 -66
30 -22 0 -37 -6 -40 -15z"/>
<path d="M15337 12953 c-10 -3 -17 -12 -15 -21 2 -13 17 -18 61 -20 56 -3 58
-2 55 20 -2 19 -9 23 -43 25 -22 0 -48 -1 -58 -4z"/>
<path d="M15490 12925 l0 -35 645 0 c509 0 645 3 645 13 0 6 -3 22 -6 35 l-6
22 -639 0 -639 0 0 -35z"/>
<path d="M490 10432 l0 -1949 25 -11 c14 -6 45 -30 70 -53 l45 -42 0 1991 0
1990 -27 6 c-16 3 -47 8 -70 11 l-43 7 0 -1950z"/>
<path d="M22260 12375 c-8 -2 -32 -6 -52 -10 l-38 -6 0 -1991 0 -1991 45 42
c25 23 56 47 70 53 l25 11 0 1949 c0 1849 -1 1948 -17 1947 -10 -1 -25 -3 -33
-4z"/>
<path d="M592 7977 c-19 -19 -49 -43 -68 -53 -30 -16 -34 -23 -34 -58 l0 -39
66 6 c36 2 67 7 70 10 3 2 4 41 2 86 l-3 82 -33 -34z"/>
<path d="M22170 7928 l0 -85 31 -7 c17 -3 49 -6 70 -6 39 0 39 0 39 38 0 32
-5 41 -25 50 -14 6 -45 30 -70 53 l-45 42 0 -85z"/>
<path d="M723 7633 l-23 -4 0 -795 0 -794 26 -10 c14 -6 30 -10 35 -10 5 0 9
314 9 810 0 642 -3 810 -12 809 -7 -1 -23 -4 -35 -6z"/>
<path d="M22030 6831 c0 -496 4 -811 9 -811 5 0 21 4 35 10 l26 10 0 795 c0
629 -3 795 -12 795 -7 0 -23 3 -35 6 l-23 6 0 -811z"/>
<path d="M543 7603 l-53 -4 0 -768 0 -769 63 -4 c34 -3 64 -3 67 -1 3 3 5 352
5 776 0 679 -2 772 -15 773 -8 0 -39 -1 -67 -3z"/>
<path d="M22170 6837 c0 -427 3 -778 8 -780 4 -2 35 -2 70 1 l62 4 0 769 0
769 -39 0 c-21 0 -53 3 -70 6 l-31 7 0 -776z"/>
<path d="M371 5974 c-126 -34 -257 -128 -315 -226 -106 -182 -34 -427 152
-511 71 -32 189 -29 258 6 126 64 177 214 115 335 -46 91 -155 143 -234 113
-79 -30 -90 -122 -20 -159 34 -18 52 -14 85 18 35 35 57 33 84 -8 24 -37 23
-109 -2 -153 -86 -147 -330 -96 -389 81 -33 100 -4 209 81 300 178 191 537
170 749 -44 131 -133 186 -261 193 -447 6 -171 -25 -282 -130 -467 l-42 -72
-28 52 c-36 65 -61 93 -115 125 l-43 25 0 142 c0 79 -3 265 -7 415 l-6 272
-29 15 -28 15 2 -472 3 -471 38 -13 c52 -18 75 -41 103 -100 39 -82 34 -159
-17 -262 -22 -46 -47 -115 -55 -152 -28 -139 -34 -407 -34 -1712 l0 -1317 40
-4 40 -4 0 73 0 72 51 -31 c131 -82 306 -23 369 125 19 44 22 64 18 132 l-6
81 72 -19 c54 -14 97 -17 181 -14 103 3 142 12 247 52 16 6 15 -1 -7 -59 -39
-104 -51 -223 -32 -326 9 -47 19 -96 23 -109 6 -21 5 -23 -17 -15 -47 15 -143
7 -197 -16 -92 -40 -163 -147 -162 -244 1 -43 23 -100 54 -141 l27 -35 -77 0
-76 0 6 -32 c3 -17 8 -33 10 -35 2 -2 637 -4 1412 -4 989 -1 1439 2 1509 10
82 9 115 18 180 50 88 43 177 71 222 71 92 0 203 -70 218 -138 4 -19 14 -32
28 -36 38 -10 917 -7 917 4 0 5 -5 21 -12 35 l-11 25 -416 0 -416 0 -20 41
c-22 47 -82 102 -136 126 -21 9 -36 20 -33 25 3 4 37 27 77 50 160 94 312 135
457 124 258 -18 465 -152 560 -361 38 -83 53 -155 53 -250 0 -187 -74 -329
-205 -395 -51 -25 -73 -30 -132 -30 -116 0 -192 45 -235 140 -57 126 8 263
132 277 49 6 100 -15 117 -48 9 -17 6 -24 -19 -48 -46 -43 -36 -108 20 -131
23 -10 35 -9 66 6 30 15 40 28 49 60 36 125 -78 254 -224 254 -140 0 -240
-102 -250 -255 -8 -135 64 -253 191 -311 55 -26 73 -29 157 -29 84 1 102 4
155 30 117 56 212 181 250 330 20 77 19 230 -1 308 -66 257 -272 455 -539 518
-78 18 -248 15 -340 -5 -89 -20 -208 -65 -272 -102 -23 -13 -44 -24 -46 -24
-3 0 8 24 24 54 49 90 70 164 76 266 16 280 -144 488 -382 498 -101 5 -173
-20 -243 -84 -28 -24 -53 -44 -56 -44 -3 0 -6 12 -6 28 0 45 -54 184 -94 245
-63 94 -182 198 -288 251 -139 68 -226 89 -383 89 -193 0 -321 -39 -494 -151
-137 -87 -308 -279 -386 -431 l-17 -34 -17 51 c-31 91 -88 149 -196 199 -50
22 -74 27 -140 26 -49 0 -97 -6 -124 -16 -40 -15 -43 -16 -37 -1 52 135 24
300 -68 402 -32 35 -107 81 -160 97 -15 4 -4 15 52 50 355 218 543 517 543
858 -1 364 -219 659 -558 753 l-61 17 34 29 c18 16 48 60 66 96 30 61 33 75
33 157 -1 118 -32 191 -115 268 -160 149 -409 173 -631 62 -38 -19 -69 -32
-69 -29 0 3 15 33 34 67 111 198 140 456 75 651 -79 235 -283 427 -511 481
-79 18 -226 18 -297 -1z m1211 -1214 c135 -50 216 -158 218 -286 0 -93 -38
-164 -117 -214 -83 -53 -163 -47 -233 17 -63 56 -74 133 -28 183 l20 21 22
-20 c57 -54 151 7 132 85 -4 14 -21 33 -39 44 -109 67 -257 -53 -257 -208 0
-56 32 -125 81 -173 l47 -48 -65 -38 c-115 -67 -185 -170 -206 -303 -19 -124
14 -229 98 -313 69 -69 143 -101 241 -105 100 -5 167 20 219 81 82 96 86 228
9 338 -81 117 -245 118 -244 2 1 -78 72 -116 141 -76 28 16 29 16 44 -2 35
-47 28 -124 -17 -181 -48 -60 -163 -82 -244 -45 -172 78 -206 311 -66 460 128
135 351 160 558 61 139 -67 277 -215 334 -359 54 -137 67 -305 35 -437 -107
-436 -579 -760 -1358 -933 l-88 -19 3 966 c4 964 4 967 26 1047 70 254 251
432 482 475 68 13 190 3 252 -20z m238 -2362 c45 -27 60 -44 87 -96 28 -55 33
-74 33 -136 0 -61 -5 -83 -31 -134 -75 -150 -284 -256 -469 -236 -131 13 -276
74 -367 155 -95 83 -212 253 -181 263 7 3 77 21 155 40 115 29 314 89 370 112
10 4 10 -2 1 -26 -15 -44 -5 -148 20 -196 44 -86 129 -133 218 -119 79 11 123
74 98 140 -7 18 -55 45 -79 45 -18 0 -69 -46 -76 -69 -8 -23 -64 13 -83 53
-56 117 36 235 184 236 57 0 73 -4 120 -32z m1829 -153 c167 -57 306 -176 381
-328 72 -145 86 -298 41 -430 -51 -148 -162 -230 -311 -231 -66 -1 -82 3 -130
30 -158 89 -181 312 -40 384 47 24 100 26 140 5 34 -18 35 -22 15 -49 -18 -24
-19 -85 -2 -107 34 -44 106 -48 143 -8 30 33 26 106 -9 157 -52 74 -131 112
-231 112 -72 0 -127 -23 -175 -71 -55 -55 -76 -112 -76 -204 0 -69 4 -88 30
-138 17 -35 53 -80 87 -112 149 -138 362 -135 525 8 33 28 105 129 116 160 2
6 20 -7 40 -30 100 -111 298 -113 373 -4 69 101 42 211 -51 211 -67 0 -102
-86 -54 -136 l21 -23 -33 -20 c-91 -55 -206 9 -225 125 -10 65 18 144 66 188
60 54 102 68 190 64 90 -4 138 -25 201 -88 62 -62 91 -137 97 -256 5 -112 -8
-176 -56 -274 -76 -155 -242 -282 -433 -331 -83 -22 -98 -22 -1042 -26 l-958
-5 7 39 c30 166 109 439 175 606 148 373 370 645 615 753 111 49 196 64 344
61 117 -3 146 -7 219 -32z m-2638 -348 c118 -110 147 -151 156 -226 13 -113
-66 -211 -169 -211 -37 0 -92 30 -107 58 -8 16 -6 21 14 32 30 16 47 62 35 95
-13 35 -54 59 -90 51 l-30 -5 0 217 0 217 41 -63 c22 -34 90 -108 150 -165z
m1233 39 c106 -32 173 -109 183 -209 7 -68 -9 -118 -54 -168 -43 -48 -100 -66
-154 -50 -57 17 -118 101 -74 101 46 0 72 82 40 127 -35 49 -124 31 -150 -31
-48 -114 20 -243 147 -281 60 -18 106 -19 144 -5 15 6 29 9 31 6 3 -2 -13 -60
-35 -128 -34 -102 -75 -255 -106 -391 l-6 -27 -48 24 c-213 108 -354 321 -369
555 -14 230 108 427 296 477 62 17 99 17 155 0z m-508 -781 c19 -8 87 -67 152
-133 64 -66 143 -136 175 -157 31 -21 57 -39 57 -41 0 -2 -97 -4 -214 -4
l-215 0 2 41 c1 34 -4 46 -26 65 -39 33 -79 31 -110 -6 -14 -16 -30 -30 -35
-30 -6 0 -22 14 -36 31 -43 51 -33 152 20 201 54 48 157 64 230 33z"/>
<path d="M22185 5984 c-167 -35 -274 -92 -385 -203 -98 -99 -157 -202 -190
-335 -25 -98 -26 -246 -4 -354 16 -79 67 -214 103 -273 12 -19 21 -37 21 -42
0 -4 -26 6 -57 22 -200 100 -417 100 -575 0 -212 -136 -247 -395 -75 -576 l30
-32 -29 -6 c-276 -62 -494 -268 -570 -540 -24 -86 -30 -301 -11 -390 56 -265
249 -518 525 -688 l71 -44 -54 -22 c-125 -52 -205 -168 -213 -311 -3 -57 0
-94 12 -129 9 -27 16 -52 16 -55 0 -3 -19 2 -42 11 -26 10 -74 16 -123 16 -66
1 -90 -4 -140 -26 -107 -50 -165 -108 -195 -198 l-17 -50 -28 48 c-121 210
-328 407 -516 491 -126 56 -221 76 -364 75 -111 0 -143 -4 -220 -27 -268 -81
-467 -279 -526 -526 -7 -30 -14 -57 -15 -58 -2 -2 -19 12 -39 32 -19 20 -59
48 -88 63 -47 25 -62 28 -152 28 -89 0 -107 -3 -161 -28 -73 -34 -152 -111
-188 -183 -82 -164 -73 -373 23 -550 16 -30 28 -54 26 -54 -1 0 -38 18 -81 39
-232 116 -459 139 -665 67 -106 -37 -175 -82 -270 -176 -137 -136 -199 -283
-199 -470 0 -53 7 -122 15 -155 69 -269 292 -417 523 -346 88 27 168 94 203
173 35 79 34 204 -3 273 -14 28 -37 60 -50 72 -58 54 -163 77 -248 53 -83 -23
-152 -115 -152 -201 1 -62 15 -87 59 -106 44 -18 85 -5 102 33 18 40 13 64
-20 95 -25 24 -28 31 -19 48 41 78 192 58 245 -31 22 -38 30 -126 16 -171 -35
-104 -129 -171 -241 -171 -83 0 -142 26 -214 94 -203 192 -171 559 68 776 69
63 210 136 294 153 89 18 248 14 338 -10 81 -21 241 -91 295 -130 l31 -22 -49
-24 c-54 -26 -130 -102 -139 -139 l-6 -24 -417 0 -418 0 -11 -25 c-7 -14 -12
-30 -12 -35 0 -6 178 -10 469 -10 l469 0 6 36 c15 79 134 152 235 142 25 -3
87 -23 136 -45 200 -90 157 -88 1782 -88 760 1 1384 3 1386 5 3 3 8 20 12 38
l7 32 -77 0 -76 0 27 35 c75 99 69 221 -16 318 -51 57 -124 89 -205 90 -33 0
-71 -3 -84 -7 -22 -8 -23 -6 -17 15 4 13 14 62 23 109 19 103 7 222 -32 326
-22 58 -23 65 -7 59 105 -40 144 -49 247 -52 84 -3 127 0 181 14 l72 19 -6
-81 c-6 -102 18 -163 88 -229 53 -49 98 -66 181 -66 45 0 65 6 112 34 l57 35
0 -70 0 -69 41 0 40 0 -4 1453 c-3 1008 -8 1472 -16 1516 -6 36 -29 103 -50
150 -53 118 -64 155 -63 223 1 43 8 71 28 108 33 61 52 78 101 95 l38 13 3
471 2 471 -35 -17 -35 -17 0 -412 0 -412 -44 -26 c-51 -30 -90 -73 -119 -133
l-21 -42 -23 34 c-13 19 -44 75 -68 124 -113 223 -118 441 -15 656 78 161 201
269 370 322 86 27 256 24 341 -5 217 -75 312 -266 222 -445 -74 -148 -300
-164 -371 -27 -17 34 -22 55 -17 83 12 80 61 118 95 74 35 -44 93 -43 127 2
29 38 7 102 -45 127 -70 33 -176 -6 -229 -85 -65 -96 -50 -234 34 -313 80 -77
229 -97 335 -45 128 63 208 204 194 340 -18 178 -179 345 -377 392 -59 14
-187 18 -234 9z m-643 -1223 c78 -25 199 -102 253 -162 100 -111 157 -246 175
-413 5 -51 10 -486 10 -993 l0 -901 -87 19 c-562 123 -967 328 -1186 599 -81
100 -139 215 -168 330 -29 116 -23 279 14 395 122 371 527 572 827 409 173
-94 225 -334 100 -463 -51 -53 -91 -72 -160 -78 -139 -13 -247 110 -195 221
19 39 30 43 59 21 31 -23 72 -18 105 13 17 15 31 34 32 42 7 68 -28 110 -92
110 -106 0 -207 -122 -209 -251 -1 -178 174 -302 360 -255 139 36 232 146 260
307 29 169 -63 344 -223 425 l-49 25 46 40 c31 27 51 57 65 95 25 65 26 103 6
171 -26 89 -125 155 -208 139 -43 -8 -66 -33 -74 -79 -11 -70 72 -113 130 -67
l26 20 19 -21 c25 -26 32 -60 21 -107 -17 -78 -78 -122 -169 -122 -141 1 -240
115 -228 264 12 141 120 252 281 286 63 13 183 4 259 -19z m-347 -2350 c92
-42 129 -133 89 -217 -19 -40 -75 -76 -83 -53 -2 8 -17 27 -33 43 -24 23 -34
27 -61 22 -57 -11 -85 -74 -56 -128 12 -23 83 -57 119 -58 119 -1 220 110 220
242 0 31 -5 69 -10 83 -8 21 -7 26 2 22 58 -24 255 -84 371 -113 78 -19 148
-37 155 -40 19 -6 -40 -112 -102 -183 -75 -84 -131 -127 -221 -171 -181 -86
-346 -88 -512 -4 -130 65 -203 166 -211 290 -8 119 33 204 123 255 61 35 146
39 210 10z m-1697 -131 c438 -55 773 -485 961 -1232 21 -84 42 -170 45 -191
l7 -39 -948 5 c-816 4 -959 7 -1029 21 -99 19 -154 42 -242 100 -175 114 -273
286 -273 476 1 231 125 384 311 383 117 0 205 -63 235 -168 25 -84 5 -158 -55
-209 -40 -33 -109 -36 -158 -6 l-33 20 20 27 c43 54 11 133 -54 133 -65 0
-106 -64 -86 -137 27 -100 101 -153 214 -153 82 0 141 25 192 82 20 22 38 38
39 36 1 -1 15 -25 30 -51 85 -149 217 -222 386 -215 147 6 251 74 312 203 58
124 45 245 -35 332 -56 61 -105 83 -189 83 -56 0 -76 -5 -129 -33 -84 -43
-124 -98 -124 -169 0 -42 4 -53 28 -74 41 -35 100 -29 134 15 17 22 16 82 -2
108 -14 20 -13 23 11 42 58 46 168 11 211 -66 32 -58 36 -96 19 -156 -21 -74
-63 -127 -127 -162 -46 -25 -65 -29 -129 -30 -93 0 -167 33 -230 101 -128 139
-143 354 -40 559 114 228 327 354 625 374 11 0 58 -4 103 -9z m2482 -375 l0
-214 -30 5 c-86 18 -132 -105 -55 -146 20 -11 22 -16 14 -32 -15 -28 -70 -58
-107 -58 -137 0 -216 167 -141 299 11 21 69 83 128 139 59 55 125 128 147 161
21 33 40 61 42 61 1 0 2 -97 2 -215z m-1217 16 c57 -25 139 -100 174 -159 90
-152 92 -366 5 -546 -66 -138 -159 -234 -294 -306 l-57 -31 -7 28 c-31 136
-72 289 -106 391 -22 68 -38 126 -35 128 2 3 16 0 31 -6 94 -36 245 29 290
124 36 77 12 184 -48 213 -33 15 -39 15 -70 1 -43 -21 -59 -62 -40 -106 8 -19
22 -34 38 -38 54 -13 11 -84 -63 -104 -77 -20 -146 14 -185 92 -106 213 132
419 367 319z m513 -786 c45 -35 64 -74 64 -134 0 -39 -6 -56 -26 -80 -14 -17
-30 -31 -36 -31 -5 0 -21 14 -35 30 -30 36 -68 39 -107 9 -21 -17 -26 -29 -26
-65 l0 -44 -215 0 c-118 0 -215 2 -215 4 0 2 21 16 46 31 25 15 110 89 189
165 124 120 149 140 186 147 61 12 134 -1 175 -32z"/>
<path d="M490 5792 c0 -31 5 -41 24 -50 14 -6 43 -27 64 -47 47 -42 52 -36 52
60 0 71 -4 75 -92 75 l-48 0 0 -38z"/>
<path d="M22188 5823 c-15 -4 -18 -17 -18 -90 l0 -86 45 42 c25 23 56 47 70
53 20 9 25 18 25 50 l0 38 -52 -1 c-29 -1 -61 -3 -70 -6z"/>
<path d="M591 5246 c-18 -19 -48 -42 -67 -52 l-34 -19 0 -1947 c0 -1072 3
-1948 7 -1948 3 0 35 5 70 11 l63 11 0 1989 c0 1094 -1 1989 -3 1989 -2 0 -18
-15 -36 -34z"/>
<path d="M22170 3292 l0 -1990 63 -11 c35 -6 67 -11 70 -11 4 0 7 877 7 1948
l0 1949 -25 11 c-14 6 -45 30 -70 53 l-45 42 0 -1991z"/>
<path d="M569 1220 c-88 -15 -198 -50 -304 -96 -95 -42 -105 -49 -99 -68 12
-41 73 -142 113 -187 l40 -46 -24 -80 c-43 -149 -75 -393 -61 -468 l7 -38 142
6 c143 5 230 19 365 59 l73 21 32 -30 c37 -36 134 -99 183 -119 l35 -15 39 83
c193 415 143 779 -128 921 -38 20 -98 43 -133 52 -67 15 -202 18 -280 5z m199
-96 l31 -6 -23 -37 c-34 -53 -76 -165 -89 -234 l-11 -59 -54 5 c-65 7 -162 51
-221 101 -55 46 -115 122 -107 135 10 15 174 71 255 85 84 16 172 19 219 10z
m223 -67 c60 -45 107 -113 93 -134 -19 -30 -175 -102 -253 -117 -34 -6 -34 -6
-28 28 7 43 53 159 84 214 30 51 47 53 104 9z m129 -361 c0 -134 -28 -266 -80
-378 -12 -26 -13 -26 -39 -11 -111 69 -189 192 -215 339 l-5 31 79 17 c47 10
113 34 162 60 46 24 86 44 91 44 4 1 7 -45 7 -102z m-664 34 c51 -26 88 -37
190 -56 17 -3 23 -16 33 -75 7 -39 28 -100 46 -136 20 -40 28 -66 21 -68 -119
-40 -322 -72 -413 -66 -16 1 -17 75 -2 157 12 70 60 274 63 274 2 0 30 -13 62
-30z"/>
<path d="M21947 1214 c-130 -31 -255 -120 -310 -222 -81 -148 -81 -381 -1
-622 25 -74 81 -197 93 -205 13 -8 131 58 192 107 l62 50 71 -21 c132 -39 221
-53 363 -58 l142 -6 7 38 c14 75 -18 319 -61 469 l-24 81 28 30 c48 51 109
149 125 201 6 18 -3 25 -73 57 -228 104 -450 141 -614 101z m270 -95 c80 -11
249 -62 280 -84 16 -12 14 -17 -21 -63 -72 -94 -192 -165 -297 -178 l-56 -6
-7 46 c-10 64 -39 145 -79 221 l-34 64 26 4 c52 8 111 7 188 -4z m-304 -71
c31 -55 77 -171 84 -214 6 -34 6 -34 -28 -28 -80 15 -252 99 -257 125 -7 37
115 159 159 159 10 0 27 -18 42 -42z m-134 -296 c47 -23 119 -49 161 -58 l77
-17 -8 -49 c-12 -73 -28 -117 -64 -173 -34 -52 -101 -120 -146 -148 l-27 -16
-20 47 c-50 117 -64 184 -70 326 -2 78 -1 137 4 134 5 -2 47 -23 93 -46z m631
5 c0 -2 9 -39 20 -83 22 -83 50 -257 50 -311 0 -42 -18 -47 -122 -33 -73 10
-293 57 -309 66 -3 2 9 32 26 68 18 35 39 96 46 135 10 59 16 72 33 75 98 19
138 31 186 55 55 28 70 34 70 28z"/>
<path d="M7858 782 c-20 -2 -28 -9 -28 -23 0 -16 7 -19 55 -19 47 0 55 3 55
19 0 20 -31 29 -82 23z"/>
<path d="M8268 782 c-20 -2 -28 -9 -28 -23 0 -17 7 -19 60 -19 52 0 60 2 60
19 0 20 -37 29 -92 23z"/>
<path d="M9102 782 c-28 -3 -33 -7 -30 -25 3 -19 10 -22 61 -25 55 -3 57 -2
57 21 0 27 -25 35 -88 29z"/>
<path d="M9308 783 c-20 -3 -28 -10 -28 -24 0 -17 7 -19 60 -19 53 0 60 2 60
20 0 13 -7 20 -19 20 -11 0 -25 2 -33 3 -7 2 -25 2 -40 0z"/>
<path d="M9517 782 c-23 -3 -28 -8 -25 -25 6 -41 118 -33 118 8 0 14 -47 22
-93 17z"/>
<path d="M9945 783 c-40 -6 -51 -18 -35 -38 18 -22 99 -17 114 7 5 9 8 19 6
22 -9 8 -55 13 -85 9z"/>
<path d="M10148 782 c-20 -2 -28 -9 -28 -23 0 -16 7 -19 55 -19 47 0 55 3 55
19 0 20 -31 29 -82 23z"/>
<path d="M10557 783 c-22 -4 -28 -9 -25 -26 3 -19 9 -22 53 -22 44 0 50 3 53
23 2 14 -2 22 -11 22 -9 0 -21 2 -29 3 -7 2 -26 2 -41 0z"/>
<path d="M11598 783 c-19 -3 -28 -10 -28 -23 0 -23 31 -33 81 -28 26 2 35 8
37 26 3 16 -2 22 -16 22 -11 0 -26 2 -34 3 -7 2 -25 2 -40 0z"/>
<path d="M12018 782 c-20 -2 -28 -9 -28 -23 0 -17 7 -19 60 -19 52 0 60 2 60
19 0 20 -37 29 -92 23z"/>
<path d="M12432 782 c-28 -3 -33 -7 -30 -25 3 -20 9 -22 63 -22 54 0 60 2 63
21 3 18 -3 22 -30 25 -18 2 -48 3 -66 1z"/>
<path d="M12643 783 c-66 -8 -29 -56 39 -51 36 2 44 7 46 26 2 14 -2 22 -11
22 -9 0 -21 2 -29 3 -7 2 -28 2 -45 0z"/>
<path d="M13688 782 c-20 -2 -28 -9 -28 -23 0 -16 7 -19 55 -19 47 0 55 3 55
19 0 20 -31 29 -82 23z"/>
<path d="M13892 782 c-28 -3 -33 -7 -30 -25 3 -19 10 -22 61 -25 55 -3 57 -2
57 21 0 27 -25 35 -88 29z"/>
<path d="M14103 782 c-25 -2 -33 -8 -33 -23 0 -17 7 -19 60 -19 52 0 60 2 60
19 0 20 -30 28 -87 23z"/>
<path d="M14727 783 c-22 -4 -28 -9 -25 -26 3 -20 9 -22 58 -22 49 0 55 2 58
23 3 16 -2 22 -16 22 -11 0 -26 2 -34 3 -7 2 -26 2 -41 0z"/>
<path d="M15348 783 c-16 -2 -28 -10 -28 -17 0 -24 28 -37 72 -34 36 2 44 7
46 26 3 16 -2 22 -16 22 -11 0 -26 2 -34 3 -7 2 -25 2 -40 0z"/>
<path d="M7410 760 c0 -18 7 -20 55 -20 48 0 55 2 55 20 0 18 -7 20 -55 20
-48 0 -55 -2 -55 -20z"/>
<path d="M7610 760 c0 -18 7 -20 60 -20 53 0 60 2 60 20 0 18 -7 20 -60 20
-53 0 -60 -2 -60 -20z"/>
<path d="M8030 760 c0 -23 30 -33 81 -28 26 2 35 8 37 26 3 21 0 22 -57 22
-54 0 -61 -2 -61 -20z"/>
<path d="M8460 760 c0 -17 7 -20 50 -20 43 0 50 3 50 20 0 17 -7 20 -50 20
-43 0 -50 -3 -50 -20z"/>
<path d="M8660 760 c0 -18 7 -20 60 -20 53 0 60 2 60 20 0 18 -7 20 -60 20
-53 0 -60 -2 -60 -20z"/>
<path d="M8860 766 c0 -24 27 -37 72 -34 36 2 44 7 46 26 3 21 0 22 -57 22
-45 0 -61 -4 -61 -14z"/>
<path d="M9702 758 c3 -20 10 -23 52 -26 32 -2 52 1 57 10 20 30 9 38 -52 38
-57 0 -60 -1 -57 -22z"/>
<path d="M10320 760 c0 -18 7 -20 60 -20 53 0 60 2 60 20 0 18 -7 20 -60 20
-53 0 -60 -2 -60 -20z"/>
<path d="M10740 760 c0 -18 7 -20 60 -20 53 0 60 2 60 20 0 18 -7 20 -60 20
-53 0 -60 -2 -60 -20z"/>
<path d="M10950 760 c0 -18 7 -20 55 -20 48 0 55 2 55 20 0 18 -7 20 -55 20
-48 0 -55 -2 -55 -20z"/>
<path d="M11162 758 c3 -20 9 -23 53 -23 44 0 50 3 53 23 3 21 0 22 -53 22
-53 0 -56 -1 -53 -22z"/>
<path d="M11370 760 c0 -18 7 -20 55 -20 48 0 55 2 55 20 0 18 -7 20 -55 20
-48 0 -55 -2 -55 -20z"/>
<path d="M11780 760 c0 -18 7 -20 60 -20 53 0 60 2 60 20 0 18 -7 20 -60 20
-53 0 -60 -2 -60 -20z"/>
<path d="M12210 759 c0 -18 5 -20 52 -17 41 2 54 7 56 21 3 14 -5 17 -52 17
-50 0 -56 -2 -56 -21z"/>
<path d="M12820 760 c0 -18 7 -20 60 -20 53 0 60 2 60 20 0 18 -7 20 -60 20
-53 0 -60 -2 -60 -20z"/>
<path d="M13032 763 c2 -14 15 -19 61 -21 52 -3 57 -1 57 18 0 18 -6 20 -61
20 -52 0 -60 -2 -57 -17z"/>
<path d="M13250 760 c0 -18 7 -20 55 -20 48 0 55 2 55 20 0 18 -7 20 -55 20
-48 0 -55 -2 -55 -20z"/>
<path d="M13450 760 c0 -19 5 -21 57 -18 46 2 59 7 61 21 3 15 -5 17 -57 17
-55 0 -61 -2 -61 -20z"/>
<path d="M14280 760 c0 -18 7 -20 60 -20 53 0 60 2 60 20 0 18 -7 20 -60 20
-53 0 -60 -2 -60 -20z"/>
<path d="M14490 761 c0 -21 19 -31 60 -31 41 0 60 10 60 31 0 17 -8 19 -60 19
-52 0 -60 -2 -60 -19z"/>
<path d="M14910 760 c0 -18 7 -20 55 -20 48 0 55 2 55 20 0 18 -7 20 -55 20
-48 0 -55 -2 -55 -20z"/>
<path d="M15112 763 c2 -14 15 -19 61 -21 52 -3 57 -1 57 18 0 18 -6 20 -61
20 -52 0 -60 -2 -57 -17z"/>
<path d="M6023 735 l10 -35 639 0 638 0 0 35 0 35 -649 0 -649 0 11 -35z"/>
<path d="M15490 735 l0 -35 639 0 639 0 6 23 c3 12 6 28 6 35 0 9 -136 12
-645 12 l-645 0 0 -35z"/>
<path d="M1297 623 c-3 -5 -8 -34 -11 -65 l-7 -58 1948 0 1948 0 20 36 c11 20
35 49 54 65 l36 29 -1992 0 c-1096 0 -1994 -3 -1996 -7z"/>
<path d="M5688 586 c22 -23 43 -53 47 -65 5 -17 14 -21 51 -21 49 0 49 0 38
84 l-7 46 -85 0 -85 0 41 -44z"/>
<path d="M6050 603 c0 -16 3 -45 6 -65 l7 -38 5337 0 5337 0 7 37 c3 21 6 50
6 66 l0 27 -5350 0 -5350 0 0 -27z"/>
<path d="M16976 584 c-11 -84 -11 -84 38 -84 37 0 46 4 51 21 4 12 25 42 47
65 l41 44 -85 0 -85 0 -7 -46z"/>
<path d="M17551 601 c19 -16 43 -45 54 -65 l20 -36 1948 0 1948 0 -7 58 c-3
31 -8 60 -11 65 -2 4 -900 7 -1996 7 l-1992 0 36 -29z"/>
</g>
</svg>
